<?xml version="1.0" encoding="utf-8"?>
<!-- Generator: Adobe Illustrator 16.0.0, SVG Export Plug-In . SVG Version: 6.00 Build 0)  -->
<!DOCTYPE svg PUBLIC "-//W3C//DTD SVG 1.1//EN" "http://www.w3.org/Graphics/SVG/1.1/DTD/svg11.dtd">
<svg version="1.1" id="Layer_1" xmlns="http://www.w3.org/2000/svg" xmlns:xlink="http://www.w3.org/1999/xlink" x="0px" y="0px"
	 width="257.896px" height="333.467px" viewBox="0 0 257.896 333.467" enable-background="new 0 0 257.896 333.467"
	 xml:space="preserve">
<g>
	<path fill-rule="evenodd" clip-rule="evenodd" d="M131.093,333.467c2.987-3.006,6.518-5.973,9.305-9.521
		c3.113-3.961,1.446-7.059-3.627-7.066c-2.058-0.003-4.113,1.059-6.177,1.611c-2.758,0.739-5.596,2.27-8.27,2.027
		c-7.913-0.717-15.803-1.921-23.609-3.419c-2.229-0.428-4.211-2.41-6.181-3.853c-2.267-1.658-4.181-3.968-6.656-5.111
		c-1.636-0.756-4.781-0.725-5.822,0.346c-1.289,1.322-1.926,4.333-1.375,6.176c1.194,3.997,3.323,7.716,5.632,12.784
		c-4.953-4.425-9.041-8.159-13.215-11.795c-25.112-21.871-41.138-49.367-48.048-81.655c-3.318-15.504-3.629-31.657-5.155-47.53
		c-0.201-2.096,0.503-4.271,0.733-6.416c0.538-5.012,0.726-9.554-3.914-13.514c-2.201-1.879-2.931-6.067-3.329-9.331
		c-0.559-4.575-1.886-8.572-3.742-12.867c-4.603-10.65-9.864-21.637-3.709-33.747c0.802-1.579,0.707-4.32-0.132-5.913
		c-5.854-11.121-5.114-20.893,3.391-30.794c2.964-3.451,2.854-9.655,3.842-14.662c1.073-5.434,3.006-10.304,8.049-13.118
		c5.615-3.134,8.91-7.505,11.344-13.679c3.571-9.059,11.868-12.673,21.328-12.879c4.462-0.098,7.19-1.9,9.943-5.337
		c6.267-7.82,15.174-9.721,24.712-9.192c2.634,0.146,5.432,0.503,7.802,1.556c4.656,2.067,7.987,0.818,12.216-1.853
		c7.836-4.948,16.469-6.502,25.599-2.229c5.459,2.556,10.96,5.039,17.662,3.027c8.187-2.458,15.799,0.446,22.596,5.17
		c3.021,2.1,5.631,3.064,9.574,1.962c7.271-2.032,19.598,5.206,23.201,13.947c2.398,5.817,6.374,8.723,11.688,11.306
		c8.678,4.219,16.065,9.913,18.854,20.06c0.483,1.761,3.469,3.199,5.592,4.08c9.722,4.033,16.438,15.969,14.024,25.404
		c-0.204,0.799-0.299,1.825-0.837,2.309c-4.361,3.92-2.402,7.491-0.082,11.659c4.329,7.782,4.132,16.292,2.607,24.818
		c-0.087,0.483-0.179,1.123-0.509,1.383c-8.785,6.911-6.185,18.17-10.232,26.916c-2.14,4.622-4.251,9.131-3.483,15.026
		c0.855,6.59-5.027,11.039-8.711,16.146c-3.001,4.161-5.641,9.179-6.547,14.161c-7.377,40.54-21.558,77.646-52.928,106.06
		c-12.508,11.33-26.527,20.639-42.238,27.148C131.712,333.295,131.136,333.453,131.093,333.467z M208.317,99.664
		c-1.701,0.745-3.217,2.036-4.543,1.865c-3.259-0.419-6.428-1.522-9.638-2.33c-7.245-1.821-14.467-3.759-21.765-5.344
		c-1.6-0.348-3.798,0.095-5.168,1.005c-4.576,3.037-9.375,2.857-14.414,1.933c-7.769-1.428-15.371-2.975-23.495-3.105
		c-9.957-0.16-20.106-2.7-29.696-5.721c-5.304-1.671-10.074-2.657-15.438-1.654c-5.076,0.95-9.904,0.333-14.306-2.755
		c-0.902-0.633-2.516-0.792-3.627-0.502c-14.572,3.804-25.762,12.056-30.095,26.79c-4.915,16.718-8.516,33.821-12.621,50.773
		c-0.164,0.677,0.365,1.521,0.705,2.785c4.082-0.557,8.073-0.813,11.926-1.681c11.184-2.52,22.417-3.096,33.719-1.231
		c12.504,2.062,24.389,5.435,32.903,15.937c0.853,1.052,3.331,1.61,4.755,1.241c10.574-2.735,20.713-1.812,30.778,2.364
		c1.629,0.676,4.264-0.214,6.105-1.079c4.174-1.963,7.919-5.05,12.236-6.461c15.953-5.213,31.882-3.412,47.62,1.359
		c6.552,1.987,13.026,4.232,20.085,6.54c0.235-2.833,0.535-4.306,0.451-5.756c-0.864-14.944-1.623-29.898-2.754-44.824
		C221.157,118.122,215.919,108.279,208.317,99.664z M22.393,176.557c-0.451,0.018-0.903,0.035-1.354,0.053
		c-0.514,18.333,0.468,36.545,3.725,54.664c1.921,10.692,7.584,18.287,17.029,23.191c4.275,2.22,8.604,4.571,13.188,5.903
		c6.012,1.746,9.253,5.456,10.744,11.243c2.151,8.351,4.914,16.374,10,23.574c4.453,6.303,9.384,7.812,16.358,4.94
		c3.835-1.578,8.212-2.29,12.385-2.478c4.787-0.216,9.623,0.55,14.433,0.947c4.943,0.409,9.671,0.708,13.889,4.389
		c4.466,3.896,10.189,3.87,14.524-0.354c4.899-4.772,9.025-10.447,12.911-16.124c4.572-6.681,6.695-15.354,16.781-16.772
		c5.678-0.798,11.371-2.32,16.725-4.38c7.54-2.901,12.347-8.752,14.946-16.436c1.212-3.584,2.763-7.052,4.009-10.625
		c1.182-3.395,2.166-6.858,3.039-9.652c-2.943,2.44-6.033,4.94-9.056,7.52c-18.039,15.395-46.799,13.233-60.146-5.074
		c-8.358-11.466-11.279-24.641-8.902-38.805c0.492-2.935,1.43-5.879-2.508-7.546c-8.272-3.502-16.732-4.455-25.328-1.856
		c-1.464,0.442-3.392,3.079-3.243,4.508c0.848,8.126-1.564,15.509-4.415,22.816c-11.129,28.531-47.765,35.834-68.969,13.874
		c-11.378-11.783-12.853-26.092-11.117-41.342C22.274,180.69,22.281,178.618,22.393,176.557z M176.822,174.005
		c-7.371,1.781-14.881,3.134-22.073,5.466c-6.922,2.246-10.521,7.656-11.424,14.977c-1.039,8.428-0.179,16.55,2.535,24.599
		c7.518,22.306,33.01,27.293,49.46,19.626c16.724-7.795,25.806-34.671,17.181-51.037c-1.762-3.344-5.5-6.749-9.033-7.838
		C194.97,177.178,186.054,175.916,176.822,174.005z M59.092,165.13c-23.376,0.17-28.489,4.194-31.466,23.732
		c-2.315,15.202,2.454,28.455,15.123,37.259c12.299,8.547,26.194,8.969,39.088,1.139c13.587-8.251,17.954-22.021,18.79-37.078
		c0.371-6.685-2.914-11.65-8.333-15.511C81.293,166.836,68.681,165.496,59.092,165.13z"/>
	<path fill-rule="evenodd" clip-rule="evenodd" fill="#FFFFFF" d="M208.317,99.664c7.602,8.615,12.84,18.458,13.725,30.149
		c1.131,14.926,1.89,29.88,2.754,44.824c0.084,1.45-0.216,2.923-0.451,5.756c-7.059-2.308-13.533-4.553-20.085-6.54
		c-15.738-4.771-31.667-6.572-47.62-1.359c-4.317,1.411-8.062,4.498-12.236,6.461c-1.842,0.865-4.477,1.755-6.105,1.079
		c-10.064-4.177-20.204-5.1-30.778-2.364c-1.425,0.369-3.903-0.189-4.755-1.241c-8.514-10.502-20.399-13.875-32.903-15.937
		c-11.302-1.864-22.535-1.288-33.719,1.231c-3.854,0.867-7.845,1.124-11.926,1.681c-0.34-1.265-0.869-2.108-0.705-2.785
		c4.105-16.952,7.706-34.056,12.621-50.773c4.333-14.734,15.523-22.986,30.095-26.79c1.111-0.29,2.726-0.131,3.627,0.502
		c4.402,3.088,9.23,3.705,14.306,2.755c5.364-1.003,10.134-0.017,15.438,1.654c9.59,3.021,19.739,5.561,29.696,5.721
		c8.124,0.131,15.726,1.678,23.495,3.105c5.039,0.925,9.838,1.104,14.414-1.933c1.37-0.91,3.568-1.353,5.168-1.005
		c7.298,1.585,14.52,3.522,21.765,5.344c3.21,0.808,6.379,1.911,9.638,2.33C205.101,101.7,206.616,100.409,208.317,99.664z
		 M148.128,166.034c3.447,0,5.518,0.198,7.535-0.038c5.292-0.62,10.553-1.5,15.841-2.149c10.626-1.304,21.027-1.413,29.788,6.25
		c0.371,0.325,0.807,0.605,1.256,0.809c3.783,1.705,5.791,0.259,5.409-3.878c-0.771-8.359-11.767-18.623-20.182-18.74
		c-13.623-0.19-25.233,5.31-35.992,13.025C150.592,162.167,149.893,163.708,148.128,166.034z M99.171,161.892
		c0.302-0.454,0.604-0.908,0.905-1.362c-1.095-1.559-1.99-3.317-3.318-4.642c-7.279-7.261-15.656-12.778-25.368-16.399
		c-13.423-5.004-21.644,1.217-28.403,10.921c-1.139,1.636-0.796,4.303-1.138,6.493c2.16-0.053,4.719,0.633,6.414-0.282
		c8.737-4.721,17.587-4.181,26.64-1.456c6.375,1.918,12.746,3.849,19.139,5.7C95.711,161.348,97.459,161.557,99.171,161.892z"/>
	<path fill-rule="evenodd" clip-rule="evenodd" fill="#FFFFFF" d="M22.393,176.557c-0.111,2.061-0.119,4.133-0.352,6.18
		c-1.735,15.25-0.261,29.559,11.117,41.342c21.204,21.96,57.839,14.657,68.969-13.874c2.851-7.308,5.262-14.69,4.415-22.816
		c-0.149-1.429,1.779-4.065,3.243-4.508c8.595-2.599,17.056-1.646,25.328,1.856c3.938,1.667,3,4.611,2.508,7.546
		c-2.377,14.164,0.544,27.339,8.902,38.805c13.347,18.308,42.106,20.469,60.146,5.074c3.022-2.579,6.112-5.079,9.056-7.52
		c-0.873,2.794-1.857,6.258-3.039,9.652c-1.246,3.573-2.797,7.041-4.009,10.625c-2.6,7.684-7.406,13.534-14.946,16.436
		c-5.354,2.06-11.047,3.582-16.725,4.38c-10.086,1.419-12.209,10.092-16.781,16.772c-3.886,5.677-8.012,11.352-12.911,16.124
		c-4.335,4.224-10.059,4.25-14.524,0.354c-4.218-3.681-8.946-3.979-13.889-4.389c-4.81-0.397-9.646-1.163-14.433-0.947
		c-4.173,0.188-8.55,0.899-12.385,2.478c-6.974,2.872-11.905,1.362-16.358-4.94c-5.087-7.2-7.85-15.224-10-23.574
		c-1.49-5.787-4.731-9.497-10.744-11.243c-4.583-1.332-8.913-3.684-13.188-5.903c-9.444-4.904-15.107-12.499-17.029-23.191
		c-3.257-18.119-4.239-36.331-3.725-54.664C21.49,176.592,21.941,176.575,22.393,176.557z M113.225,260.94
		c-3.123,0.175-4.848,0.676-6.341,0.287c-8.464-2.203-17.238-3.773-25.199-7.201c-8.032-3.458-15.554-6.521-24.23-2.833
		c-0.38,4.289-0.427,4.628,4.044,5.312c5.765,0.881,9.976,3.595,13.678,8.097c3.678,4.472,7.194,10.196,14.743,7.829
		c0.404-0.127,0.965,0.191,1.438,0.348c13.133,4.334,26.655,5.676,40.367,4.729c7.475-0.517,15.678,1.837,21.913-4.695
		c4.704-4.927,10.452-7.313,17.294-7.222c3.465,0.047,4.854-1.7,3.771-5.113c-1.786-0.569-3.607-0.901-5.191-1.701
		c-4.714-2.382-9.303-2.748-14.418-0.904c-5.109,1.841-10.468,3.369-15.838,3.996c-5.806,0.678-11.752,0.154-17.637,0.154
		c9.477-4.539,12.534-8.317,12.296-16.151c-9.5,11.618-25.686,8.07-32.5-0.587c-0.331,0.275-0.661,0.55-0.991,0.824
		C104.38,250.69,108.335,255.273,113.225,260.94z"/>
	<path fill-rule="evenodd" clip-rule="evenodd" fill="#FFFFFF" d="M176.822,174.005c9.231,1.91,18.147,3.173,26.646,5.792
		c3.533,1.089,7.271,4.494,9.033,7.838c8.625,16.366-0.457,43.242-17.181,51.037c-16.45,7.667-41.942,2.68-49.46-19.626
		c-2.714-8.049-3.574-16.171-2.535-24.599c0.902-7.32,4.502-12.73,11.424-14.977C161.941,177.139,169.451,175.787,176.822,174.005z
		 M151.826,199.186c1.554,0.413,2.681,0.687,3.792,1.017c1.125,0.334,2.812,0.391,3.25,1.147c2.042,3.538,4.896,3.814,8.533,3.23
		c2.912-0.469,5.973,0.066,8.93-0.224c1.557-0.152,3.051-1.077,4.54-1.729c1.808-0.791,3.581-1.661,5.368-2.498
		c0.256,0.349,0.512,0.698,0.768,1.047c0.275-1.733,0.551-3.467,0.944-5.938c4.694,1.955,8.948,3.727,13.821,5.755
		C197.153,188.661,167.72,186.589,151.826,199.186z"/>
	<path fill-rule="evenodd" clip-rule="evenodd" fill="#FFFFFF" d="M59.092,165.13c9.589,0.365,22.201,1.706,33.202,9.541
		c5.419,3.86,8.704,8.826,8.333,15.511c-0.836,15.057-5.203,28.827-18.79,37.078c-12.894,7.83-26.789,7.408-39.088-1.139
		c-12.669-8.804-17.438-22.057-15.123-37.259C30.603,169.325,35.715,165.3,59.092,165.13z M88.897,193.792
		c0.381-0.35,0.763-0.699,1.144-1.049c-1.056-0.982-1.947-2.346-3.194-2.887c-7.398-3.211-14.667-7.038-22.396-9.076
		c-6.913-1.822-14.26-0.725-20.705,3.085c-0.992,0.587-1.349,2.248-2,3.412c1.17,0.037,2.402,0.325,3.5,0.062
		c3.256-0.781,6.46-1.78,9.649-2.685c0.372,4.068,0.664,7.271,1.024,11.221c1.619-2.047,2.606-3.295,3.397-4.295
		c2.196,2.381,3.788,5.682,5.726,5.9c5.001,0.563,10.239,0.209,15.205-0.723c1.811-0.34,3.122-3.348,4.87-5.382
		C86.333,192.152,87.615,192.972,88.897,193.792z"/>
	<path fill-rule="evenodd" clip-rule="evenodd" d="M148.128,166.034c1.765-2.326,2.464-3.867,3.655-4.722
		c10.759-7.716,22.369-13.216,35.992-13.025c8.415,0.117,19.411,10.381,20.182,18.74c0.382,4.137-1.626,5.583-5.409,3.878
		c-0.449-0.203-0.885-0.483-1.256-0.809c-8.761-7.663-19.162-7.554-29.788-6.25c-5.288,0.649-10.549,1.529-15.841,2.149
		C153.646,166.232,151.575,166.034,148.128,166.034z"/>
	<path fill-rule="evenodd" clip-rule="evenodd" d="M99.171,161.892c-1.711-0.335-3.459-0.544-5.128-1.027
		c-6.394-1.852-12.765-3.782-19.139-5.7C65.85,152.44,57,151.9,48.263,156.621c-1.694,0.915-4.253,0.229-6.414,0.282
		c0.342-2.19-0.001-4.857,1.138-6.493c6.759-9.704,14.98-15.925,28.403-10.921c9.712,3.621,18.089,9.139,25.368,16.399
		c1.328,1.324,2.223,3.083,3.318,4.642C99.774,160.984,99.473,161.438,99.171,161.892z"/>
	<path fill-rule="evenodd" clip-rule="evenodd" d="M113.225,260.94c-4.89-5.667-8.845-10.25-12.8-14.833
		c0.331-0.274,0.661-0.549,0.991-0.824c6.814,8.657,23,12.205,32.5,0.587c0.238,7.834-2.819,11.612-12.296,16.151
		c5.885,0,11.831,0.523,17.637-0.154c5.37-0.627,10.729-2.155,15.838-3.996c5.115-1.844,9.704-1.478,14.418,0.904
		c1.584,0.8,3.405,1.132,5.191,1.701c1.082,3.413-0.307,5.16-3.771,5.113c-6.842-0.092-12.59,2.295-17.294,7.222
		c-6.235,6.532-14.438,4.179-21.913,4.695c-13.712,0.947-27.234-0.395-40.367-4.729c-0.473-0.156-1.034-0.475-1.438-0.348
		c-7.548,2.367-11.065-3.357-14.743-7.829c-3.702-4.502-7.914-7.216-13.678-8.097c-4.471-0.684-4.424-1.022-4.044-5.312
		c8.676-3.688,16.198-0.625,24.23,2.833c7.961,3.428,16.734,4.998,25.199,7.201C108.377,261.616,110.102,261.115,113.225,260.94z
		 M135.278,274.061c-14.305-3.243-29.012-3.854-43.705-4.614C105.423,276.514,119.975,277.912,135.278,274.061z"/>
	<path fill-rule="evenodd" clip-rule="evenodd" d="M151.826,199.186c15.894-12.597,45.327-10.525,49.946,1.808
		c-4.873-2.028-9.127-3.8-13.821-5.755c-0.394,2.472-0.669,4.205-0.944,5.938c-0.256-0.349-0.512-0.698-0.768-1.047
		c-1.787,0.837-3.561,1.707-5.368,2.498c-1.489,0.651-2.983,1.576-4.54,1.729c-2.957,0.29-6.018-0.245-8.93,0.224
		c-3.637,0.584-6.491,0.308-8.533-3.23c-0.438-0.757-2.125-0.813-3.25-1.147C154.507,199.873,153.38,199.599,151.826,199.186z"/>
	<path fill-rule="evenodd" clip-rule="evenodd" d="M88.897,193.792c-1.282-0.819-2.565-1.64-3.78-2.416
		c-1.748,2.034-3.059,5.042-4.87,5.382c-4.966,0.932-10.204,1.286-15.205,0.723c-1.938-0.219-3.53-3.52-5.726-5.9
		c-0.791,1-1.778,2.248-3.397,4.295c-0.36-3.95-0.653-7.152-1.024-11.221c-3.188,0.904-6.393,1.903-9.649,2.685
		c-1.099,0.264-2.33-0.024-3.5-0.062c0.651-1.164,1.008-2.825,2-3.412c6.445-3.81,13.792-4.907,20.705-3.085
		c7.729,2.038,14.998,5.865,22.396,9.076c1.248,0.541,2.139,1.904,3.194,2.887C89.66,193.092,89.279,193.442,88.897,193.792z"/>
	<path fill-rule="evenodd" clip-rule="evenodd" fill="#FFFFFF" d="M135.278,274.061c-15.304,3.851-29.855,2.453-43.705-4.614
		C106.266,270.207,120.973,270.818,135.278,274.061z"/>
</g>
</svg>
